<svg width="94" height="123" viewBox="0 0 94 123" fill="none" xmlns="http://www.w3.org/2000/svg">
<path d="M79.6892 114.499L79.0268 113.961C87.8407 101.676 92.5009 86.9993 92.5009 71.512C92.5009 47.5199 81.1309 25.4472 62.085 12.4666L62.537 11.722C81.8245 24.8598 93.3347 47.2138 93.3347 71.512C93.3347 87.1895 88.6122 102.056 79.6892 114.499Z" fill="#006874"/>
<path d="M26.4631 142.504C-10.4131 142.504 -40.416 110.652 -40.416 71.5039C-40.416 32.3555 -10.4131 0.503906 26.4631 0.503906V1.38912C-9.95334 1.38912 -39.5744 32.8436 -39.5744 71.4956C-39.5744 110.156 -9.94555 141.602 26.4631 141.602C37.4668 141.602 48.3613 138.673 57.9623 133.13L58.3597 133.908C48.6341 139.542 37.5993 142.504 26.4631 142.504Z" fill="#006874"/>
<path d="M26.4632 135.653C19.8392 135.653 13.3321 134.519 7.11328 132.294L7.651 130.614C13.6983 132.782 20.0262 133.882 26.471 133.882C56.731 133.882 81.8633 109.816 84.9104 77.8979L86.578 78.08C83.4297 110.891 57.5883 135.653 26.4632 135.653Z" fill="#006874"/>
<path d="M84.4583 61.5428C82.2685 47.0731 75.2704 33.8113 64.7421 24.2062C54.1047 14.4936 40.506 9.14911 26.4631 9.14911C15.1244 9.14911 4.1207 12.5825 -5.36332 19.0851C-16.4137 26.6633 -24.8457 38.0802 -29.1085 51.2345L-30.6904 50.6554C-26.3108 37.1288 -17.6372 25.3893 -6.2751 17.596C3.48169 10.9113 14.7971 7.37866 26.4553 7.37866C40.9035 7.37866 54.884 12.8803 65.8253 22.8659C76.6497 32.7441 83.8504 46.3865 86.1026 61.2698L84.4583 61.5428Z" fill="#006874"/>
<path d="M26.4628 117.833C2.39817 117.833 -17.1777 97.0504 -17.1777 71.503C-17.1777 61.1616 -14.0372 51.3828 -8.10673 43.2255L-6.78193 44.3092C-12.4864 52.1604 -15.5023 61.5587 -15.5023 71.503C-15.5023 96.0659 3.32553 116.054 26.4628 116.054C30.5697 116.054 34.6298 115.425 38.5185 114.184L39.0017 115.888C34.9493 117.187 30.7256 117.833 26.4628 117.833Z" fill="#006874"/>
<path d="M55.9366 105.672L54.8066 104.365C63.4646 95.9429 68.4287 83.9717 68.4287 71.5124C68.4287 62.7428 66.0285 54.2546 61.493 46.966L62.8879 45.9897C67.6105 53.5679 70.1042 62.3954 70.1042 71.5206C70.0964 84.4681 64.9375 96.9192 55.9366 105.672Z" fill="#006874"/>
<path d="M52.5696 36.6234C45.0806 30.2944 36.0486 26.9521 26.4632 26.9521C18.0546 26.9521 9.94217 29.5829 2.99864 34.5634L2.06348 33.0908C9.27975 27.9118 17.7195 25.1816 26.4632 25.1816C36.4382 25.1816 45.8287 28.6564 53.6139 35.2418L52.5696 36.6234Z" fill="#006874"/>
<path d="M26.4626 109.875C20.5867 109.875 14.7498 108.344 9.59082 105.449L9.98047 104.663C15.0225 107.492 20.7192 108.99 26.4548 108.99C42.2979 108.99 56.294 97.6804 60.4944 81.4816L61.2971 81.7215C57.011 98.3008 42.6797 109.875 26.4626 109.875Z" fill="#006874"/>
<path d="M0.909961 98.6473C-5.91667 91.4 -9.68066 81.7618 -9.68066 71.5114C-9.68066 50.357 6.52869 33.1406 26.4631 33.1406C46.3897 33.1406 62.6068 50.357 62.6068 71.5114H61.773C61.773 50.8451 45.9377 34.0341 26.4708 34.0341C7.00404 34.0341 -8.83123 50.8451 -8.83123 71.5114C-8.83123 81.5219 -5.16075 90.9367 1.51781 98.0185L0.909961 98.6473Z" fill="#006874"/>
<path d="M26.4632 95.3726C14.0646 95.3726 3.98047 84.6671 3.98047 71.5046C3.98047 58.342 14.0646 47.6366 26.4632 47.6366V49.4153C14.9919 49.4153 5.65595 59.3265 5.65595 71.5046C5.65595 83.6826 14.9919 93.5938 26.4632 93.5938C37.9344 93.5938 47.2703 83.6826 47.2703 71.5046H48.9458C48.938 84.6671 38.854 95.3726 26.4632 95.3726Z" fill="#006874"/>
<path d="M26.4632 83.3677C20.299 83.3677 15.2881 78.0481 15.2881 71.504H16.1219C16.1219 77.5517 20.7587 82.4742 26.4554 82.4742C32.152 82.4742 36.7889 77.5517 36.7889 71.504C36.7889 65.4564 32.152 60.5339 26.4554 60.5339C23.2914 60.5339 20.3457 62.0396 18.3663 64.6704L17.7117 64.1161C19.847 61.2702 23.0343 59.6404 26.4554 59.6404C32.6196 59.6404 37.6305 64.96 37.6305 71.504C37.6305 78.0481 32.6196 83.3677 26.4632 83.3677Z" fill="#006874"/>
</svg>
