<svg width="64" height="65" viewBox="0 0 64 65" fill="none" xmlns="http://www.w3.org/2000/svg">
<rect y="0.5" width="64" height="64" rx="4" fill="#FFEFCC"/>
<path d="M48.3421 24.6316C48.3345 24.4206 48.2512 24.2194 48.1075 24.0647L37.1601 13.1368L37.0429 13.0586H37.0038L36.906 13H17.8459C17.2403 12.9995 16.6579 13.2332 16.2207 13.6522C15.7835 14.0712 15.5252 14.6431 15.5 15.2481V49.6541C15.5 50.2763 15.7472 50.873 16.1871 51.3129C16.627 51.7528 17.2237 52 17.8459 52H45.9962C46.6184 52 47.2151 51.7528 47.655 51.3129C48.0949 50.873 48.3421 50.2763 48.3421 49.6541V24.6511V24.6316ZM37.3947 15.5805L45.6639 23.8496H37.3947V15.5805ZM45.9962 50.4361H17.8459C17.6385 50.4361 17.4396 50.3537 17.2929 50.2071C17.1463 50.0604 17.0639 49.8615 17.0639 49.6541V15.2481C17.0639 15.0407 17.1463 14.8418 17.2929 14.6952C17.4396 14.5486 17.6385 14.4662 17.8459 14.4662H35.8308V24.6316C35.8308 24.839 35.9132 25.0379 36.0599 25.1845C36.2065 25.3312 36.4054 25.4135 36.6128 25.4135H46.7782V49.6541C46.7782 49.8615 46.6958 50.0604 46.5492 50.2071C46.4025 50.3537 46.2036 50.4361 45.9962 50.4361Z" fill="#E5B805"/>
<path d="M27.9223 41.3111V40.1556H36.0111V41.3111H27.9223ZM30.5511 39L27.2578 35.7067L28.0811 34.8834L30.5511 37.3534L35.8523 32.0522L36.6756 32.8756L30.5511 39Z" fill="#E5B805"/>
</svg>
