<svg width="64" height="65" viewBox="0 0 64 65" fill="none" xmlns="http://www.w3.org/2000/svg">
<rect y="0.5" width="64" height="64" rx="4" fill="#FFEDEA"/>
<path d="M44 43.0834L46.6667 40.4167V53.8334H12V11.1667H35.2292L45.625 21.5625C45.1389 21.7153 44.7222 21.875 44.375 22.0417C44.0278 22.2084 43.6944 22.4028 43.375 22.625C43.0556 22.8472 42.7639 23.0972 42.5 23.375C42.2361 23.6528 41.9306 23.9584 41.5833 24.2917L41.375 24.5H33.3333V13.8334H14.6667V51.1667H44V43.0834ZM36 21.8334H42.1042L36 15.7292V21.8334ZM47.8333 24.5C48.4167 24.5 48.9583 24.6042 49.4583 24.8125C49.9583 25.0209 50.4028 25.3125 50.7917 25.6875C51.1806 26.0625 51.4722 26.5 51.6667 27C51.8611 27.5 51.9722 28.0417 52 28.625C52 29.1667 51.8958 29.6945 51.6875 30.2084C51.4792 30.7222 51.1806 31.1736 50.7917 31.5625L35.8542 46.5417C35.7569 46.5695 35.5 46.632 35.0833 46.7292C34.6667 46.8264 34.1736 46.9514 33.6042 47.1042C33.0347 47.257 32.4167 47.4097 31.75 47.5625C31.0833 47.7153 30.4861 47.8681 29.9583 48.0209C29.4306 48.1736 28.9722 48.2847 28.5833 48.3542C28.1944 48.4236 28 48.4722 28 48.5H17.3333V45.8334H28.6667L29.9583 40.6459L44.8958 25.6875C45.2847 25.2986 45.7361 25.007 46.25 24.8125C46.7639 24.6181 47.2917 24.5139 47.8333 24.5ZM48.8958 29.6875C49.1875 29.3959 49.3333 29.0417 49.3333 28.625C49.3333 28.1945 49.1944 27.8472 48.9167 27.5834C48.6389 27.3195 48.2778 27.1806 47.8333 27.1667C47.6389 27.1667 47.4514 27.1945 47.2708 27.25C47.0903 27.3056 46.9306 27.4097 46.7917 27.5625L32.375 42.0209L31.6667 44.8334L34.4792 44.125L48.8958 29.6875Z" fill="#FF5449"/>
</svg>
