<svg width="64" height="65" viewBox="0 0 64 65" fill="none" xmlns="http://www.w3.org/2000/svg">
<rect y="0.5" width="64" height="64" rx="4" fill="#EDFCFF"/>
<path d="M5.33301 53.8333V51.1667C5.33301 46.216 7.29967 41.468 10.8003 37.9673C14.301 34.4667 19.049 32.5 23.9997 32.5V32.5" stroke="#006874" stroke-width="3" stroke-linecap="round" stroke-linejoin="round"/>
<path d="M42.1438 33.3346C42.5482 32.8908 43.0407 32.5363 43.5899 32.2938C44.1391 32.0512 44.7328 31.9259 45.3332 31.9259C45.9335 31.9259 46.5273 32.0512 47.0765 32.2938C47.6256 32.5363 48.1182 32.8908 48.5225 33.3346C49.3892 34.2866 50.6292 34.8013 51.9145 34.74C52.5145 34.7118 53.1137 34.8093 53.6739 35.0261C54.2341 35.2429 54.7428 35.5742 55.1675 35.999C55.5922 36.4237 55.9236 36.9324 56.1404 37.4926C56.3572 38.0527 56.4546 38.652 56.4265 39.252C56.3652 40.5346 56.8798 41.7773 57.8292 42.644C59.7092 44.356 59.7092 47.3106 57.8292 49.0226C56.8798 49.8893 56.3652 51.1293 56.4265 52.4146C56.4546 53.0146 56.3572 53.6139 56.1404 54.174C55.9236 54.7342 55.5922 55.2429 55.1675 55.6676C54.7428 56.0923 54.2341 56.4237 53.6739 56.6405C53.1137 56.8573 52.5145 56.9548 51.9145 56.9266C51.2808 56.8967 50.6482 57.0068 50.0619 57.2493C49.4756 57.4917 48.95 57.8605 48.5225 58.3293C48.1182 58.7731 47.6256 59.1276 47.0765 59.3702C46.5273 59.6127 45.9335 59.738 45.3332 59.738C44.7328 59.738 44.1391 59.6127 43.5899 59.3702C43.0407 59.1276 42.5482 58.7731 42.1438 58.3293C41.7164 57.8605 41.1907 57.4917 40.6044 57.2493C40.0181 57.0068 39.3856 56.8967 38.7518 56.9266C38.1519 56.9548 37.5526 56.8573 36.9924 56.6405C36.4323 56.4237 35.9236 56.0923 35.4988 55.6676C35.0741 55.2429 34.7428 54.7342 34.526 54.174C34.3092 53.6139 34.2117 53.0146 34.2398 52.4146C34.2695 51.7807 34.1589 51.148 33.916 50.5617C33.6731 49.9754 33.3038 49.4499 32.8345 49.0226C32.3907 48.6183 32.0362 48.1258 31.7936 47.5766C31.5511 47.0274 31.4258 46.4337 31.4258 45.8333C31.4258 45.2329 31.5511 44.6392 31.7936 44.09C32.0362 43.5408 32.3907 43.0483 32.8345 42.644C33.7865 41.7773 34.3012 40.5373 34.2398 39.252C34.2117 38.652 34.3092 38.0527 34.526 37.4926C34.7428 36.9324 35.0741 36.4237 35.4988 35.999C35.9236 35.5742 36.4323 35.2429 36.9924 35.0261C37.5526 34.8093 38.1519 34.7118 38.7518 34.74C40.0345 34.8013 41.2772 34.2866 42.1438 33.3346V33.3346Z" stroke="#006874" stroke-width="3"/>
<path d="M40.9703 45.8333L43.877 48.74L49.6957 42.9266M23.9997 32.5C26.8287 32.5 29.5418 31.3762 31.5421 29.3758C33.5425 27.3754 34.6663 24.6623 34.6663 21.8333C34.6663 19.0043 33.5425 16.2912 31.5421 14.2908C29.5418 12.2904 26.8287 11.1666 23.9997 11.1666C21.1707 11.1666 18.4576 12.2904 16.4572 14.2908C14.4568 16.2912 13.333 19.0043 13.333 21.8333C13.333 24.6623 14.4568 27.3754 16.4572 29.3758C18.4576 31.3762 21.1707 32.5 23.9997 32.5V32.5Z" stroke="#006874" stroke-width="3" stroke-linecap="round" stroke-linejoin="round"/>
</svg>
