<svg width="136" height="121" viewBox="0 0 136 121" fill="none" xmlns="http://www.w3.org/2000/svg">
<path d="M121.728 92.805L121.061 92.2636C129.935 79.8939 134.627 65.117 134.627 49.5238C134.627 25.3676 123.179 3.14396 104.003 -9.92535L104.458 -10.675C123.878 2.55254 135.466 25.0594 135.466 49.5238C135.466 65.3086 130.712 80.2771 121.728 92.805Z" fill="#006874"/>
<path d="M68.1374 121C31.0089 121 0.800781 88.9311 0.800781 49.5149C0.800781 10.0987 31.0089 -21.9707 68.1374 -21.9707V-21.0794C31.4718 -21.0794 1.64818 10.5901 1.64818 49.5065C1.64818 88.4313 31.4796 120.093 68.1374 120.093C79.2163 120.093 90.1853 117.144 99.8519 111.563L100.252 112.346C90.4599 118.018 79.3496 121 68.1374 121Z" fill="#006874"/>
<path d="M36.2731 104.54C18.1325 92.6788 7.30469 72.1044 7.30469 49.5142H8.99163C8.99163 71.4797 19.5213 91.4793 37.1597 103.016L36.2731 104.54Z" fill="#006874"/>
<path d="M68.1365 114.104C61.4672 114.104 54.9156 112.963 48.6543 110.723L49.1957 109.032C55.2844 111.214 61.6555 112.322 68.1444 112.322C98.6114 112.322 123.916 88.0907 126.983 55.9547L128.663 56.1379C125.493 89.1735 99.4745 114.104 68.1365 114.104Z" fill="#006874"/>
<path d="M126.528 39.4859C124.323 24.9172 117.277 11.5647 106.677 1.89394C95.9669 -7.88514 82.2752 -13.2661 68.1362 -13.2661C56.7199 -13.2661 45.641 -9.80931 36.0921 -3.26215C24.9661 4.36786 16.4765 15.8629 12.1846 29.1071L10.5918 28.524C15.0014 14.905 23.7343 3.08507 35.1741 -4.76152C44.9976 -11.4919 56.3904 -15.0487 68.1284 -15.0487C82.6753 -15.0487 96.7515 -9.50946 107.768 0.544506C118.666 10.4902 125.916 24.2259 128.184 39.211L126.528 39.4859Z" fill="#006874"/>
<path d="M68.1363 96.1616C43.9071 96.1616 24.1973 75.2374 24.1973 49.5152C24.1973 39.1031 27.3593 29.2573 33.3303 21.0443L34.6642 22.1354C28.9207 30.0403 25.8842 39.5029 25.8842 49.5152C25.8842 74.2461 44.8408 94.3707 68.1363 94.3707C72.2713 94.3707 76.3592 93.7376 80.2744 92.4882L80.7609 94.2041C76.6809 95.5119 72.4282 96.1616 68.1363 96.1616Z" fill="#006874"/>
<path d="M97.8115 83.9165L96.6738 82.6004C105.391 74.1208 110.389 62.0677 110.389 49.5232C110.389 40.6937 107.972 32.1474 103.406 24.8089L104.81 23.826C109.565 31.456 112.076 40.3438 112.076 49.5315C112.068 62.5675 106.874 75.1037 97.8115 83.9165Z" fill="#006874"/>
<path d="M94.4229 14.3974C86.8826 8.02513 77.7888 4.65993 68.1379 4.65993C59.6718 4.65993 51.5039 7.30878 44.5128 12.3233L43.5713 10.8406C50.8369 5.62618 59.3344 2.87738 68.1379 2.87738C78.1811 2.87738 87.6359 6.37586 95.4743 13.0063L94.4229 14.3974Z" fill="#006874"/>
<path d="M68.1366 88.1487C62.2205 88.1487 56.3436 86.6077 51.1494 83.6923L51.5417 82.901C56.6183 85.7497 62.3539 87.2574 68.1287 87.2574C84.0802 87.2574 98.172 75.8707 102.401 59.5611L103.209 59.8027C98.8939 76.4954 84.4646 88.1487 68.1366 88.1487Z" fill="#006874"/>
<path d="M42.4092 76.846C35.5358 69.5491 31.7461 59.845 31.7461 49.5245C31.7461 28.2254 48.0663 10.8913 68.137 10.8913C88.1999 10.8913 104.528 28.2254 104.528 49.5245H103.688C103.688 28.7169 87.7448 11.7909 68.1449 11.7909C48.5449 11.7909 32.6013 28.7169 32.6013 49.5245C32.6013 59.6035 36.2969 69.0827 43.0212 76.2129L42.4092 76.846Z" fill="#006874"/>
<path d="M68.1374 73.5466C55.654 73.5466 45.501 62.7679 45.501 49.5154C45.501 36.2628 55.654 25.4841 68.1374 25.4841V27.275C56.5877 27.275 47.1879 37.254 47.1879 49.5154C47.1879 61.7767 56.5877 71.7557 68.1374 71.7557C79.6871 71.7557 89.0869 61.7767 89.0869 49.5154H90.7739C90.766 62.7679 80.613 73.5466 68.1374 73.5466Z" fill="#006874"/>
<path d="M68.1373 61.4602C61.9309 61.4602 56.8857 56.1042 56.8857 49.5154H57.7253C57.7253 55.6044 62.3938 60.5606 68.1294 60.5606C73.865 60.5606 78.5336 55.6044 78.5336 49.5154C78.5336 43.4264 73.865 38.4702 68.1294 38.4702C64.9438 38.4702 61.9779 39.9862 59.985 42.6351L59.3259 42.077C61.4758 39.2116 64.6849 37.5706 68.1294 37.5706C74.3358 37.5706 79.3809 42.9266 79.3809 49.5154C79.3809 56.1042 74.3358 61.4602 68.1373 61.4602Z" fill="#006874"/>
</svg>
