<svg width="94" height="143" viewBox="0 0 94 143" fill="none" xmlns="http://www.w3.org/2000/svg">
<path d="M79.6892 114.499L79.0268 113.961C87.8407 101.675 92.5009 86.9988 92.5009 71.5115C92.5009 47.5195 81.1309 25.4468 62.085 12.4662L62.537 11.7216C81.8245 24.8593 93.3347 47.2134 93.3347 71.5115C93.3347 87.1891 88.6122 102.056 79.6892 114.499Z" fill="#006874"/>
<path d="M26.4631 142.503C-10.4131 142.503 -40.416 110.652 -40.416 71.5034C-40.416 32.355 -10.4131 0.503418 26.4631 0.503418V1.38864C-9.95334 1.38864 -39.5744 32.8431 -39.5744 71.4951C-39.5744 110.155 -9.94555 141.602 26.4631 141.602C37.4668 141.602 48.3613 138.673 57.9623 133.13L58.3597 133.908C48.6341 139.542 37.5993 142.503 26.4631 142.503Z" fill="#006874"/>
<path d="M26.4632 135.652C19.8392 135.652 13.3321 134.519 7.11328 132.293L7.651 130.614C13.6983 132.781 20.0262 133.882 26.471 133.882C56.731 133.882 81.8633 109.815 84.9104 77.8974L86.578 78.0794C83.4297 110.891 57.5883 135.652 26.4632 135.652Z" fill="#006874"/>
<path d="M84.4583 61.5423C82.2685 47.0726 75.2704 33.8108 64.7421 24.2057C54.1047 14.4931 40.506 9.14862 26.4631 9.14862C15.1244 9.14862 4.12071 12.582 -5.36332 19.0847C-16.4137 26.6628 -24.8457 38.0798 -29.1085 51.234L-30.6904 50.6549C-26.3108 37.1284 -17.6372 25.3888 -6.2751 17.5955C3.48169 10.9108 14.7971 7.37817 26.4553 7.37817C40.9035 7.37817 54.884 12.8798 65.8253 22.8655C76.6497 32.7436 83.8504 46.386 86.1026 61.2693L84.4583 61.5423Z" fill="#006874"/>
<path d="M26.4628 117.832C2.39817 117.832 -17.1777 97.05 -17.1777 71.5025C-17.1777 61.1611 -14.0372 51.3823 -8.10673 43.225L-6.78193 44.3088C-12.4864 52.16 -15.5023 61.5582 -15.5023 71.5025C-15.5023 96.0655 3.32553 116.053 26.4628 116.053C30.5697 116.053 34.6298 115.425 38.5185 114.184L39.0017 115.888C34.9493 117.187 30.7256 117.832 26.4628 117.832Z" fill="#006874"/>
<path d="M55.9366 105.672L54.8066 104.364C63.4646 95.9424 68.4287 83.9712 68.4287 71.5119C68.4287 62.7424 66.0285 54.2541 61.493 46.9655L62.8879 45.9893C67.6105 53.5674 70.1042 62.3949 70.1042 71.5201C70.0964 84.4676 64.9375 96.9187 55.9366 105.672Z" fill="#006874"/>
<path d="M52.5696 36.6229C45.0806 30.2939 36.0486 26.9516 26.4632 26.9516C18.0546 26.9516 9.94217 29.5825 2.99864 34.5629L2.06348 33.0903C9.27975 27.9113 17.7195 25.1812 26.4632 25.1812C36.4382 25.1812 45.8287 28.6559 53.6139 35.2413L52.5696 36.6229Z" fill="#006874"/>
<path d="M26.4626 109.874C20.5867 109.874 14.7498 108.344 9.59082 105.448L9.98047 104.662C15.0225 107.492 20.7192 108.989 26.4548 108.989C42.2979 108.989 56.294 97.6799 60.4944 81.4811L61.2971 81.721C57.011 98.3004 42.6797 109.874 26.4626 109.874Z" fill="#006874"/>
<path d="M0.909961 98.6468C-5.91667 91.3995 -9.68066 81.7613 -9.68066 71.5109C-9.68066 50.3565 6.52869 33.1401 26.4631 33.1401C46.3897 33.1401 62.6068 50.3565 62.6068 71.5109H61.773C61.773 50.8446 45.9377 34.0336 26.4708 34.0336C7.00404 34.0336 -8.83123 50.8446 -8.83123 71.5109C-8.83123 81.5214 -5.16075 90.9362 1.51781 98.018L0.909961 98.6468Z" fill="#006874"/>
<path d="M26.4632 95.3721C14.0646 95.3721 3.98047 84.6666 3.98047 71.5041C3.98047 58.3415 14.0646 47.6361 26.4632 47.6361V49.4149C14.9919 49.4149 5.65595 59.326 5.65595 71.5041C5.65595 83.6821 14.9919 93.5934 26.4632 93.5934C37.9344 93.5934 47.2703 83.6821 47.2703 71.5041H48.9458C48.938 84.6666 38.854 95.3721 26.4632 95.3721Z" fill="#006874"/>
<path d="M26.4632 83.3672C20.299 83.3672 15.2881 78.0476 15.2881 71.5036H16.1219C16.1219 77.5512 20.7587 82.4737 26.4554 82.4737C32.152 82.4737 36.7889 77.5512 36.7889 71.5036C36.7889 65.4559 32.152 60.5334 26.4554 60.5334C23.2914 60.5334 20.3457 62.0391 18.3663 64.6699L17.7117 64.1157C19.847 61.2697 23.0343 59.6399 26.4554 59.6399C32.6196 59.6399 37.6305 64.9595 37.6305 71.5036C37.6305 78.0476 32.6196 83.3672 26.4632 83.3672Z" fill="#006874"/>
</svg>
