<svg width="136" height="100" viewBox="0 0 136 100" fill="none" xmlns="http://www.w3.org/2000/svg">
<path d="M121.728 71.8045L121.061 71.2631C129.935 58.8934 134.627 44.1165 134.627 28.5233C134.627 4.36715 123.179 -17.8565 104.003 -30.9258L104.458 -31.6755C123.878 -18.448 135.466 4.05895 135.466 28.5233C135.466 44.3081 130.712 59.2766 121.728 71.8045Z" fill="#006874"/>
<path d="M68.1374 100C31.0089 100 0.800781 67.9306 0.800781 28.5144C0.800781 -10.9018 31.0089 -42.9712 68.1374 -42.9712V-42.0799C31.4718 -42.0799 1.64818 -10.4104 1.64818 28.5061C1.64818 67.4308 31.4796 99.0921 68.1374 99.0921C79.2163 99.0921 90.1853 96.1433 99.8519 90.5624L100.252 91.3454C90.4599 97.0179 79.3496 100 68.1374 100Z" fill="#006874"/>
<path d="M36.2731 83.5398C18.1325 71.6782 7.30469 51.1039 7.30469 28.5137H8.99163C8.99163 50.4791 19.5213 70.4788 37.1597 82.0154L36.2731 83.5398Z" fill="#006874"/>
<path d="M68.1365 93.1038C61.4672 93.1038 54.9156 91.9627 48.6543 89.722L49.1957 88.031C55.2844 90.2134 61.6555 91.3213 68.1444 91.3213C98.6114 91.3213 123.916 67.0901 126.983 34.9541L128.663 35.1374C125.493 68.173 99.4745 93.1038 68.1365 93.1038Z" fill="#006874"/>
<path d="M126.528 18.4854C124.323 3.91676 117.277 -9.43575 106.677 -19.1065C95.9669 -28.8856 82.2752 -34.2666 68.1362 -34.2666C56.7199 -34.2666 45.641 -30.8098 36.0921 -24.2626C24.9661 -16.6326 16.4765 -5.13763 12.1846 8.10661L10.5918 7.52355C15.0014 -6.09553 23.7343 -17.9154 35.1741 -25.762C44.9976 -32.4924 56.3904 -36.0492 68.1284 -36.0492C82.6753 -36.0492 96.7515 -30.5099 107.768 -20.456C118.666 -10.5103 125.916 3.2254 128.184 18.2106L126.528 18.4854Z" fill="#006874"/>
<path d="M68.1363 75.1611C43.9071 75.1611 24.1973 54.2368 24.1973 28.5147C24.1973 18.1025 27.3593 8.2568 33.3303 0.0437012L34.6642 1.13489C28.9207 9.03979 25.8842 18.5023 25.8842 28.5147C25.8842 53.2456 44.8408 73.3702 68.1363 73.3702C72.2713 73.3702 76.3592 72.7371 80.2744 71.4876L80.7609 73.2036C76.6809 74.5113 72.4282 75.1611 68.1363 75.1611Z" fill="#006874"/>
<path d="M97.8115 62.916L96.6738 61.5999C105.391 53.1202 110.389 41.0672 110.389 28.5226C110.389 19.6931 107.972 11.1468 103.406 3.80834L104.81 2.82544C109.565 10.4555 112.076 19.3432 112.076 28.5309C112.068 41.5669 106.874 54.1032 97.8115 62.916Z" fill="#006874"/>
<path d="M68.1366 67.1481C62.2205 67.1481 56.3436 65.6071 51.1494 62.6917L51.5417 61.9004C56.6183 64.7492 62.3539 66.2568 68.1287 66.2568C84.0801 66.2568 98.172 54.8701 102.401 38.5605L103.209 38.8021C98.8939 55.4949 84.4646 67.1481 68.1366 67.1481Z" fill="#006874"/>
<path d="M42.4092 55.8455C35.5358 48.5487 31.7461 38.8446 31.7461 28.5241C31.7461 7.22501 48.0663 -10.1091 68.137 -10.1091C88.1999 -10.1091 104.528 7.22501 104.528 28.5241H103.688C103.688 7.71646 87.7448 -9.20953 68.1449 -9.20953C48.5449 -9.20953 32.6013 7.71646 32.6013 28.5241C32.6013 38.603 36.2969 48.0823 43.0212 55.2125L42.4092 55.8455Z" fill="#006874"/>
<path d="M68.1374 52.5461C55.654 52.5461 45.501 41.7674 45.501 28.5149C45.501 15.2623 55.654 4.48364 68.1374 4.48364V6.27455C56.5877 6.27455 47.1879 16.2535 47.1879 28.5149C47.1879 40.7762 56.5877 50.7552 68.1374 50.7552C79.6871 50.7552 89.0869 40.7762 89.0869 28.5149H90.7739C90.766 41.7674 80.613 52.5461 68.1374 52.5461Z" fill="#006874"/>
<path d="M68.1373 40.4597C61.9309 40.4597 56.8857 35.1037 56.8857 28.5149H57.7253C57.7253 34.6039 62.3938 39.5601 68.1294 39.5601C73.865 39.5601 78.5336 34.6039 78.5336 28.5149C78.5336 22.4259 73.865 17.4697 68.1294 17.4697C64.9438 17.4697 61.9779 18.9857 59.985 21.6345L59.3259 21.0764C61.4758 18.211 64.6849 16.5701 68.1294 16.5701C74.3358 16.5701 79.3809 21.9261 79.3809 28.5149C79.3809 35.1037 74.3358 40.4597 68.1373 40.4597Z" fill="#006874"/>
</svg>
