<svg width="375" height="289" viewBox="0 0 375 289" fill="none" xmlns="http://www.w3.org/2000/svg">
<path d="M-12.1547 27.1126C68.2073 81.2384 127.787 86.5334 147.532 82.4151C200.274 72.1318 260.996 109.814 284.763 129.941C325.14 174.727 399.728 182.59 431.975 180.923C471.484 176.575 531.053 207.722 555.899 223.84C588.604 245.055 702.54 262.572 706.443 255.785" stroke="#FFE089" stroke-width="0.530924"/>
<path d="M-9.21725 18.6316C71.1448 72.7574 130.725 78.0523 150.47 73.9341C203.212 63.6508 263.933 101.333 287.701 121.46C328.078 166.246 402.666 174.108 434.912 172.442C474.422 168.094 533.99 199.241 558.836 215.359C591.541 236.574 705.477 254.091 709.38 247.304" stroke="#FFE089" stroke-width="0.530924"/>
</svg>
