<svg width="75" height="64" viewBox="0 0 75 64" fill="none" xmlns="http://www.w3.org/2000/svg">
<rect x="0.447266" width="74.1053" height="64" rx="8" fill="#00363D" fill-opacity="0.1"/>
<path d="M53.6787 33H53.6785C53.0876 33.0001 52.5024 32.8838 51.9564 32.6577C51.4104 32.4316 50.9143 32.1001 50.4964 31.6823C50.0786 31.2644 49.7471 30.7683 49.521 30.2223C49.2949 29.6763 49.1786 29.0911 49.1787 28.5002V28.5C49.1787 26.0133 51.192 24 53.6787 24C56.1654 24 58.1787 26.0133 58.1787 28.5C58.1787 30.9867 56.1654 33 53.6787 33ZM43.1787 25C43.1787 28.3147 40.4934 31 37.1787 31C33.864 31 31.1787 28.3147 31.1787 25C31.1787 21.6853 33.864 19 37.1787 19C40.4934 19 43.1787 21.6853 43.1787 25ZM37.1787 35C39.7486 35 43.9287 35.8029 46.6601 37.3426C47.6904 38.4223 48.1787 39.4723 48.1787 40.4V45H25.1787V40.4C25.1787 39.7093 25.5221 39.0263 26.2723 38.3446C27.0287 37.6572 28.1248 37.0445 29.4185 36.5342C32.0069 35.5133 35.1322 35 37.1787 35ZM63.1787 45H52.1787V40.4C52.1787 39.2617 51.8974 38.2013 51.4321 37.2329C52.4155 37.0766 53.3315 37 54.0717 37C55.8096 37 58.2002 37.423 60.1264 38.2548C61.0881 38.6701 61.8767 39.163 62.4113 39.7056C62.9356 40.2378 63.1787 40.7753 63.1787 41.333V45Z" stroke="#00363D" stroke-width="2"/>
<path d="M21 33H21.0002C21.5911 33.0001 22.1763 32.8838 22.7223 32.6577C23.2683 32.4316 23.7644 32.1001 24.1823 31.6823C24.6001 31.2644 24.9316 30.7683 25.1577 30.2223C25.3838 29.6763 25.5001 29.0911 25.5 28.5002V28.5C25.5 26.0133 23.4867 24 21 24C18.5133 24 16.5 26.0133 16.5 28.5C16.5 30.9867 18.5133 33 21 33ZM31.5 25C31.5 28.3147 34.1853 31 37.5 31C40.8147 31 43.5 28.3147 43.5 25C43.5 21.6853 40.8147 19 37.5 19C34.1853 19 31.5 21.6853 31.5 25ZM37.5 35C34.9301 35 30.7501 35.8029 28.0186 37.3426C26.9884 38.4223 26.5 39.4723 26.5 40.4V45H49.5V40.4C49.5 39.7093 49.1566 39.0263 48.4064 38.3446C47.6501 37.6572 46.5539 37.0445 45.2602 36.5342C42.6718 35.5133 39.5465 35 37.5 35ZM11.5 45H22.5V40.4C22.5 39.2617 22.7813 38.2013 23.2466 37.2329C22.2632 37.0766 21.3472 37 20.607 37C18.8691 37 16.4785 37.423 14.5523 38.2548C13.5906 38.6701 12.802 39.163 12.2674 39.7056C11.7431 40.2378 11.5 40.7753 11.5 41.333V45Z" stroke="#00363D" stroke-width="2"/>
</svg>
