<svg width="75" height="64" viewBox="0 0 75 64" fill="none" xmlns="http://www.w3.org/2000/svg">
<rect x="0.166992" width="74.6667" height="64" rx="8" fill="#FF3D00" fill-opacity="0.1"/>
<path d="M15.9371 30.1427L12.2819 26.9906L17.0958 26.5712L17.6926 26.5192L17.9283 25.9685L19.8258 21.5355L21.6872 25.9626L21.9212 26.5192L22.5228 26.5713L27.3696 26.9906L23.6843 30.1398L23.2229 30.5341L23.3597 31.1254L24.4495 35.8366L20.3536 33.3456L19.8392 33.0328L19.322 33.341L15.1154 35.8481L16.2559 31.1352L16.3996 30.5416L15.9371 30.1427ZM63.834 43.5V50H25.834V43.5C25.834 42.1975 26.4759 40.9858 27.6989 39.856C28.929 38.7196 30.6806 37.7337 32.7021 36.9254C36.7468 35.3081 41.6205 34.5 44.834 34.5C48.0474 34.5 52.9212 35.3081 56.9658 36.9254C58.9874 37.7337 60.739 38.7196 61.9691 39.856C63.192 40.9858 63.834 42.1975 63.834 43.5ZM44.834 12C47.2209 12 49.5101 12.9482 51.1979 14.636C52.8858 16.3239 53.834 18.6131 53.834 21C53.834 23.3869 52.8858 25.6761 51.1979 27.364C49.5101 29.0518 47.2209 30 44.834 30C42.447 30 40.1579 29.0518 38.47 27.364C36.7822 25.6761 35.834 23.3869 35.834 21C35.834 18.6131 36.7822 16.3239 38.47 14.636C40.1579 12.9482 42.447 12 44.834 12Z" stroke="#DE3730" stroke-width="2"/>
</svg>
