<svg width="75" height="64" viewBox="0 0 75 64" fill="none" xmlns="http://www.w3.org/2000/svg">
<rect x="0.166992" width="74.6667" height="64" rx="8" fill="#1432A1" fill-opacity="0.1"/>
<path d="M45.3177 47.4731C48.8707 42.3389 49.8804 37.6374 50.1094 34.8371C52.023 35.5096 53.5864 36.354 54.7096 37.3006C56.0604 38.4392 56.7007 39.655 56.7007 40.8667V48.4H44.6762L45.3177 47.4731ZM43.5092 47.0694L43.7323 48.4H37.5358L37.7589 47.0694L39.4869 36.7654L39.5408 36.4441L39.3951 36.1528L38.0405 33.4434C38.8889 33.3751 39.7547 33.3333 40.6341 33.3333C41.5134 33.3333 42.3792 33.3751 43.2276 33.4434L41.873 36.1528L41.7273 36.4441L41.7812 36.7654L43.5092 47.0694ZM35.9504 47.4731L36.5919 48.4H24.5674V40.8667C24.5674 39.657 25.211 38.4411 26.5658 37.3012C27.6907 36.3548 29.2533 35.5109 31.1589 34.8387C31.388 37.6391 32.3981 42.3399 35.9504 47.4731ZM40.6341 12C44.7964 12 48.1674 15.371 48.1674 19.5333C48.1674 23.6957 44.7964 27.0667 40.6341 27.0667C36.4717 27.0667 33.1007 23.6957 33.1007 19.5333C33.1007 15.371 36.4717 12 40.6341 12Z" stroke="#1432A2" stroke-width="2"/>
<path d="M18.6392 32.189L18.639 32.1892C18.0354 32.5374 17.5941 33.0591 17.3202 33.6734L20.0228 38.3559C20.6904 38.4258 21.3641 38.3043 21.9705 37.9553C22.7352 37.5136 23.2931 36.7863 23.5217 35.9333C23.7502 35.0803 23.6307 34.1714 23.1893 33.4066L18.6392 32.189ZM18.6392 32.189C19.4041 31.7474 20.3131 31.6276 21.1663 31.8559C22.0193 32.0842 22.7468 32.6417 23.1889 33.4059L18.6392 32.189ZM6.58123 41.8787L15.1867 36.0397L16.9065 39.0199L13.5314 40.6557L12.9675 40.9289V41.5555V48.9331H12.8342V42.5902V40.9948L11.3983 41.6902L7.54907 43.5545L6.58123 41.8787Z" stroke="#1432A1" stroke-width="2"/>
</svg>
