<svg width="67" height="56" viewBox="0 0 67 56" fill="none" xmlns="http://www.w3.org/2000/svg">
<rect x="0.833008" width="65.3333" height="56" rx="8" fill="#9747FF" fill-opacity="0.2"/>
<path d="M33.5 8.99976C35.8869 8.99976 38.1761 9.94797 39.864 11.6358C41.5518 13.3236 42.5 15.6128 42.5 17.9998C42.5 20.3867 41.5518 22.6759 39.864 24.3637C38.1761 26.0515 35.8869 26.9998 33.5 26.9998C31.1131 26.9998 28.8239 26.0515 27.136 24.3637C25.4482 22.6759 24.5 20.3867 24.5 17.9998C24.5 15.6128 25.4482 13.3236 27.136 11.6358C28.8239 9.94797 31.1131 8.99976 33.5 8.99976ZM33.5 31.4998C36.7134 31.4998 41.5872 32.3079 45.6319 33.9252C47.6534 34.7335 49.405 35.7194 50.6351 36.8558C51.8581 37.9856 52.5 39.1972 52.5 40.4998V46.9998H14.5V40.4998C14.5 39.1972 15.1419 37.9856 16.3649 36.8558C17.595 35.7194 19.3466 34.7335 21.3681 33.9252C25.4128 32.3079 30.2866 31.4998 33.5 31.4998Z" stroke="#3B4665" stroke-width="2"/>
</svg>
