<svg width="24" height="24" viewBox="0 0 24 24" fill="none" xmlns="http://www.w3.org/2000/svg">
<circle cx="12" cy="12" r="12" fill="url(#paint0_linear_1_2349)"/>
<path d="M15.5769 7H8.42308C7.61538 7 7 7.61538 7 8.42308V15.5769C7 16.3846 7.61538 17 8.42308 17H15.5769C16.3846 17 17 16.3846 17 15.5769V8.42308C17 7.61538 16.3846 7 15.5769 7ZM12 15C13.6538 15 15 13.6923 15 12.1154C15 11.8462 14.9615 11.5385 14.8846 11.3077H15.7308V15.3846C15.7308 15.5769 15.5769 15.7692 15.3462 15.7692H8.65385C8.46154 15.7692 8.26923 15.6154 8.26923 15.3846V11.2692H9.15385C9.07693 11.5385 9.03846 11.8077 9.03846 12.0769C9 13.6923 10.3462 15 12 15ZM12 13.8462C10.9231 13.8462 10.0769 13 10.0769 11.9615C10.0769 10.9231 10.9231 10.0769 12 10.0769C13.0769 10.0769 13.9231 10.9231 13.9231 11.9615C13.9231 13.0385 13.0769 13.8462 12 13.8462ZM15.6923 9.73077C15.6923 9.96154 15.5 10.1538 15.2692 10.1538H14.1923C13.9615 10.1538 13.7692 9.96154 13.7692 9.73077V8.69231C13.7692 8.46154 13.9615 8.26923 14.1923 8.26923H15.2692C15.5 8.26923 15.6923 8.46154 15.6923 8.69231V9.73077Z" fill="white"/>
<defs>
<linearGradient id="paint0_linear_1_2349" x1="5.1" y1="21.3" x2="21" y2="4.8" gradientUnits="userSpaceOnUse">
<stop stop-color="#EEA054"/>
<stop offset="0.502762" stop-color="#D64763"/>
<stop offset="1" stop-color="#B62A99"/>
</linearGradient>
</defs>
</svg>
