<svg width="24" height="24" viewBox="0 0 24 24" fill="none" xmlns="http://www.w3.org/2000/svg">
<circle cx="12" cy="12" r="12" fill="#55ACE3"/>
<path d="M19 9.09615C18.5714 9.26923 18.0816 9.38461 17.5918 9.44231C18.0816 9.15385 18.5102 8.69231 18.6939 8.17308C18.2041 8.46154 17.7143 8.63462 17.102 8.75C16.6735 8.28846 16 8 15.3265 8C13.9796 8 12.8775 9.03846 12.8775 10.3077C12.8775 10.4808 12.8776 10.6538 12.9388 10.8269C10.9184 10.7115 9.08163 9.78846 7.85714 8.40384C7.67347 8.75 7.55102 9.15384 7.55102 9.55769C7.55102 10.3654 7.97959 11.0577 8.65306 11.4615C8.22449 11.4615 7.85714 11.3462 7.55102 11.1731C7.55102 12.2692 8.40816 13.25 9.5102 13.4231C9.32653 13.4808 9.08163 13.4808 8.83674 13.4808C8.65306 13.4808 8.53061 13.4808 8.34694 13.4231C8.65306 14.3461 9.57143 15.0385 10.6735 15.0385C9.81633 15.6731 8.77551 16.0192 7.61225 16.0192C7.42857 16.0192 7.2449 16.0192 7 15.9615C8.10204 16.5962 9.38775 17 10.7959 17C15.3265 17 17.7755 13.4808 17.7755 10.4231V10.1346C18.2653 9.96154 18.6939 9.55769 19 9.09615Z" fill="white"/>
</svg>
