<svg width="24" height="24" viewBox="0 0 24 24" fill="none" xmlns="http://www.w3.org/2000/svg">
<circle cx="12" cy="12" r="12" fill="#48C95F"/>
<path d="M17.0976 6.89583C15.8746 5.67708 14.2439 5 12.5226 5C8.94425 5 6.0453 7.88889 6.0453 11.4549C6.0453 12.5833 6.36237 13.7118 6.90592 14.6597L6 18L9.44251 17.0972C10.3937 17.5938 11.4355 17.8646 12.5226 17.8646C16.101 17.8646 19 14.9757 19 11.4097C18.9547 9.73958 18.3206 8.11458 17.0976 6.89583ZM15.6481 13.7569C15.5122 14.1181 14.878 14.4792 14.561 14.5243C14.2892 14.5694 13.9268 14.5694 13.5645 14.4792C13.338 14.3889 13.0209 14.2986 12.6585 14.1181C11.0279 13.441 9.98606 11.816 9.89547 11.6806C9.80488 11.5903 9.21603 10.8229 9.21603 10.0104C9.21603 9.19792 9.62369 8.8368 9.75958 8.65625C9.89547 8.47569 10.0767 8.47569 10.2125 8.47569C10.3031 8.47569 10.439 8.47569 10.5296 8.47569C10.6202 8.47569 10.7561 8.43056 10.892 8.74653C11.0279 9.0625 11.3449 9.875 11.3902 9.92014C11.4355 10.0104 11.4355 10.1007 11.3902 10.191C11.3449 10.2812 11.2996 10.3715 11.2091 10.4618C11.1185 10.5521 11.0279 10.6875 10.9826 10.7326C10.892 10.8229 10.8014 10.9132 10.892 11.0486C10.9826 11.2292 11.2997 11.7257 11.7979 12.1771C12.4321 12.7187 12.9303 12.8993 13.1115 12.9896C13.2927 13.0799 13.3833 13.0347 13.4739 12.9444C13.5645 12.8542 13.8815 12.4931 13.9721 12.3125C14.0627 12.1319 14.1986 12.1771 14.3345 12.2222C14.4704 12.2674 15.2857 12.6736 15.4216 12.7639C15.6028 12.8542 15.6934 12.8993 15.7387 12.9444C15.784 13.0799 15.784 13.3958 15.6481 13.7569Z" fill="white"/>
</svg>
